<?xml version="1.0" encoding="UTF-8" standalone="no"?>
<!-- Created with Inkscape (http://www.inkscape.org/) -->

<svg
   width="16cm"
   height="15cm"
   viewBox="0 0 160 149.99999"
   version="1.1"
   id="svg1"
   inkscape:version="1.3.2 (091e20ef0f, 2023-11-25)"
   sodipodi:docname="snowflake.svg"
   xmlns:inkscape="http://www.inkscape.org/namespaces/inkscape"
   xmlns:sodipodi="http://sodipodi.sourceforge.net/DTD/sodipodi-0.dtd"
   xmlns="http://www.w3.org/2000/svg"
   xmlns:svg="http://www.w3.org/2000/svg">
  <sodipodi:namedview
     id="namedview1"
     pagecolor="#ffffff"
     bordercolor="#eeeeee"
     borderopacity="1"
     inkscape:showpageshadow="0"
     inkscape:pageopacity="0"
     inkscape:pagecheckerboard="0"
     inkscape:deskcolor="#d1d1d1"
     inkscape:document-units="mm"
     inkscape:zoom="1"
     inkscape:cx="182.5"
     inkscape:cy="377.5"
     inkscape:window-width="3840"
     inkscape:window-height="2099"
     inkscape:window-x="0"
     inkscape:window-y="0"
     inkscape:window-maximized="1"
     inkscape:current-layer="layer1" />
  <defs
     id="defs1" />
  <g
     inkscape:label="Layer 1"
     inkscape:groupmode="layer"
     id="layer1">
    <path
       id="path97"
       style="display:inline;fill:none;fill-opacity:1;fill-rule:evenodd;stroke:#000000;stroke-width:0.5;stroke-dasharray:none;stroke-opacity:1"
       d="M 50.670266,74.998704 40.894119,91.933074 50.670783,74.999744 Z M 55.55834,83.464854 45.781676,100.3987 50.670783,108.86642 36.005011,134.26642 40.893602,142.73204 H 50.670266 L 60.44693,125.79923 70.223078,142.73204 H 89.775889 Z" />
    <path
       id="path100"
       style="display:inline;fill:none;fill-opacity:1;fill-rule:evenodd;stroke:#000000;stroke-width:0.5;stroke-dasharray:none;stroke-opacity:1"
       d="M 60.447964,58.065374 40.894635,58.065904 36.006045,66.533594 H 6.6765695 L 1.7884955,75.000254 6.6765695,83.466404 H 26.229381 L 16.453233,100.40026 26.229381,117.3336 Z" />
    <path
       id="path103"
       style="display:inline;fill:none;fill-opacity:1;fill-rule:evenodd;stroke:#000000;stroke-width:0.5;stroke-dasharray:none;stroke-opacity:1"
       d="M 40.894119,7.2658939 36.006045,15.732561 45.782709,32.665894 26.229897,32.666414 16.452716,49.599744 H 84.888329 L 75.111669,32.666414 H 65.335521 L 50.670266,7.2664109 Z M 84.887819,32.666414 93.292989,47.224694 84.888329,32.666414 Z" />
    <path
       id="path106"
       style="display:inline;fill:none;fill-opacity:1;fill-rule:evenodd;stroke:#000000;stroke-width:0.5;stroke-dasharray:none;stroke-opacity:1"
       d="M 89.776409,7.2669279 70.223078,7.2674439 104.44063,66.532034 114.21729,49.599224 109.32922,41.133594 123.99396,15.733594 119.10485,7.2674439 H 109.32922 L 99.553069,24.200778 Z M 119.10588,58.066404 114.21729,66.533074 109.32922,74.999224 109.32974,74.999744 Z" />
    <path
       id="path109"
       style="display:inline;fill:none;fill-opacity:1;fill-rule:evenodd;stroke:#000000;stroke-width:0.5;stroke-dasharray:none;stroke-opacity:1"
       d="M 133.77062,32.665894 99.553069,91.932554 H 119.1064 L 123.99447,83.465894 H 153.32343 L 158.21151,74.999224 153.32395,66.532554 H 133.77062 L 143.5478,49.599744 Z" />
    <path
       id="path112"
       style="display:inline;fill:none;fill-opacity:1;fill-rule:evenodd;stroke:#000000;stroke-width:0.5;stroke-dasharray:none;stroke-opacity:1"
       d="M 65.335521,100.40026 75.111669,117.3336 H 75.112189 L 73.502469,114.54515 Z M 75.112189,100.40026 84.888849,117.33411 94.664479,117.33464 109.32922,142.73411 119.10588,142.7336 123.99344,134.26745 114.21729,117.33464 H 133.76959 L 143.54677,100.40026 Z" />
  </g>
</svg>
